HIERARCHY
ROOT Hips
{
 OFFSET 0.000000 0.000000 0.000000
 CHANNELS 6 Xposition Yposition Zposition Yrotation Xrotation Zrotation
 JOINT Chest
 {
  OFFSET 0.000000 14.374500 -0.011500
  CHANNELS 3 Yrotation Xrotation Zrotation
  JOINT Chest2
  {
   OFFSET 0.000000 9.203400 0.023400
   CHANNELS 3 Yrotation Xrotation Zrotation
   JOINT Chest3
   {
    OFFSET 0.000000 9.162700 0.000000
    CHANNELS 3 Yrotation Xrotation Zrotation
    JOINT Chest4
    {
     OFFSET 0.000000 9.153300 0.000000
     CHANNELS 3 Yrotation Xrotation Zrotation
     JOINT Neck
     {
      OFFSET 0.000000 13.353600 0.000000
      CHANNELS 3 Yrotation Xrotation Zrotation
      JOINT Head
      {
       OFFSET 0.000000 8.573800 0.049400
       CHANNELS 3 Yrotation Xrotation Zrotation
       End Site
       {
        OFFSET 0.000000 16.219200 0.026100
       }
      }
     }
     JOINT RightCollar
     {
      OFFSET -2.497100 8.876100 0.000000
      CHANNELS 3 Yrotation Xrotation Zrotation
      JOINT RightShoulder
      {
       OFFSET -12.289200 0.000000 0.000000
       CHANNELS 3 Yrotation Xrotation Zrotation
       JOINT RightElbow
       {
        OFFSET 0.000000 -28.194900 0.000000
        CHANNELS 3 Yrotation Xrotation Zrotation
        JOINT RightWrist
        {
         OFFSET 0.000000 -23.009700 0.007900
         CHANNELS 3 Yrotation Xrotation Zrotation
         End Site
         {
          OFFSET 0.000000 -17.151500 0.000000
         }
        }
       }
      }
     }
     JOINT LeftCollar
     {
      OFFSET 2.497100 8.876100 0.000000
      CHANNELS 3 Yrotation Xrotation Zrotation
      JOINT LeftShoulder
      {
       OFFSET 12.289200 0.000000 0.000000
       CHANNELS 3 Yrotation Xrotation Zrotation
       JOINT LeftElbow
       {
        OFFSET 0.000000 -28.194900 0.000000
        CHANNELS 3 Yrotation Xrotation Zrotation
        JOINT LeftWrist
        {
         OFFSET 0.000000 -23.009700 0.007900
         CHANNELS 3 Yrotation Xrotation Zrotation
         End Site
         {
          OFFSET 0.000000 -17.151500 0.000000
         }
        }
       }
      }
     }
    }
   }
  }
 }
 JOINT RightHip
 {
  OFFSET -11.777600 0.056700 0.005700
  CHANNELS 3 Yrotation Xrotation Zrotation
  JOINT RightKnee
  {
   OFFSET 0.000000 -39.966000 -0.004200
   CHANNELS 3 Yrotation Xrotation Zrotation
   JOINT RightAnkle
   {
    OFFSET 0.000000 -41.981900 0.027400
    CHANNELS 3 Yrotation Xrotation Zrotation
    JOINT RightToe
    {
     OFFSET 0.000000 -9.910600 16.950100
     CHANNELS 3 Yrotation Xrotation Zrotation
     End Site
     {
      OFFSET 0.000000 -1.461000 6.191600
     }
    }
   }
  }
 }
 JOINT LeftHip
 {
  OFFSET 11.777600 0.056700 0.005700
  CHANNELS 3 Yrotation Xrotation Zrotation
  JOINT LeftKnee
  {
   OFFSET 0.000000 -39.966000 -0.004200
   CHANNELS 3 Yrotation Xrotation Zrotation
   JOINT LeftAnkle
   {
    OFFSET 0.000000 -41.981900 0.027400
    CHANNELS 3 Yrotation Xrotation Zrotation
    JOINT LeftToe
    {
     OFFSET 0.000000 -9.910600 16.950100
     CHANNELS 3 Yrotation Xrotation Zrotation
     End Site
     {
      OFFSET 0.000000 -1.461000 6.191600
     }
    }
   }
  }
 }
}
MOTION
Frames: 16
Frame Time: 0.008333
0.381141 130.448722 54.402564 177.397991 -51.296599 -3.986876 3.936353 29.337824 3.876829 0.575881 5.655637 0.574081 0.926712 8.804723 0.909195 2.917300 23.499908 2.874874 5.619578 10.427898 2.955585 5.426733 -14.683022 1.889011 -1.404023 0.350234 -1.932984 0.223128 -9.931810 -1.759898 -74.251541 -56.181641 83.185618 -4.727947 -13.741398 -18.563597 -7.985925 -3.134213 1.887283 4.413159 -9.610678 -2.774872 53.573076 -45.802441 -79.810206 6.754959 -35.047604 25.612396 6.392721 -26.186317 2.622699 -74.672349 82.550625 -78.713970 -0.108198 -24.672176 9.877660 0.000266 0.003879 0.000156 -2.309684 -24.042556 -3.270772 110.707431 78.002553 119.234171 6.740587 -8.169602 -6.394259 -0.004030 -0.001547 -0.002356
0.387153 130.450603 54.405457 177.359359 -51.312076 -3.962262 3.971505 29.445321 3.931307 0.581339 5.673285 0.570797 0.936205 8.859527 0.920153 2.936932 23.554743 2.898435 5.655727 10.405460 2.979482 5.462988 -14.706796 1.907334 -1.463075 0.396825 -1.953839 0.085571 -9.798424 -1.706783 -74.322805 -55.449100 83.606289 -4.914467 -13.956404 -18.717520 -8.035076 -3.129170 1.872116 4.475944 -9.608539 -2.719746 54.049711 -45.305386 -80.346589 6.963506 -35.240220 25.575889 6.389972 -26.172036 2.652348 -74.579770 82.523833 -78.649623 -0.098798 -24.666137 9.878933 0.002002 0.003684 0.001170 -2.280886 -24.029542 -3.254957 110.686432 78.013818 119.212838 6.728345 -8.159180 -6.392258 -0.000629 -0.003948 -0.000368
0.391101 130.451670 54.407859 177.323146 -51.320132 -3.929886 3.993445 29.521272 3.957341 0.586313 5.708965 0.576733 0.944010 8.911228 0.929465 2.951863 23.606661 2.917071 5.701749 10.411725 2.998749 5.510417 -14.699984 1.918092 -1.519201 0.429385 -1.973226 -0.031948 -9.681320 -1.671883 -74.322504 -54.936942 83.971696 -5.081337 -14.150216 -18.883202 -8.086545 -3.131234 1.862168 4.490603 -9.616108 -2.666688 54.514524 -44.842698 -80.818059 7.130171 -35.440005 25.556296 6.407519 -26.163323 2.658317 -74.483365 82.495805 -78.561365 -0.094425 -24.677923 9.860229 -0.002564 -0.003341 -0.001499 -2.257702 -24.022505 -3.249322 110.639296 78.026980 119.155419 6.725868 -8.142589 -6.403312 -0.000544 -0.004483 -0.000318
0.394819 130.451527 54.409919 177.305892 -51.316530 -3.909615 3.996654 29.584999 3.975293 0.590980 5.692909 0.565341 0.950123 9.007537 0.954493 2.959782 23.654889 2.930659 5.758690 10.439993 3.010915 5.571002 -14.669692 1.918373 -1.569197 0.448514 -1.989614 -0.109974 -9.598822 -1.657774 -74.244957 -54.637250 84.235446 -5.235213 -14.295952 -19.026919 -8.137728 -3.140660 1.854825 4.455497 -9.627454 -2.615245 54.964044 -44.446985 -81.216457 7.278606 -35.628774 25.523814 6.414564 -26.165876 2.658160 -74.335364 82.452237 -78.424357 -0.066966 -24.669175 9.855921 -0.005819 -0.006521 -0.003402 -2.246726 -24.026971 -3.250222 110.511724 78.042049 119.013701 6.728977 -8.108035 -6.403977 -0.006721 -0.007013 -0.003929
0.399572 130.454541 54.407831 177.272458 -51.323715 -3.877775 4.013504 29.658765 3.996346 0.591773 5.675836 0.552218 0.956020 9.096403 0.978353 2.961006 23.698437 2.939835 5.822350 10.487637 3.015753 5.640172 -14.618687 1.908976 -1.619339 0.453389 -2.003634 -0.128810 -9.558865 -1.662721 -74.092815 -54.517807 84.373865 -5.365018 -14.393835 -19.103951 -8.189988 -3.160817 1.850737 4.370069 -9.632435 -2.565434 55.389490 -44.133112 -81.538647 7.431339 -35.798005 25.465808 6.427998 -26.161621 2.660617 -74.268385 82.437659 -78.368548 -0.060238 -24.665642 9.853775 -0.007091 -0.007911 -0.004146 -2.227039 -24.018468 -3.248818 110.447138 78.055761 118.938300 6.724443 -8.087044 -6.409786 -0.011468 -0.013244 -0.006704
0.401701 130.456189 54.404428 177.245421 -51.316324 -3.837543 4.019060 29.722123 4.001531 0.591739 5.773563 0.580500 0.953971 9.062617 0.955805 2.957840 23.737125 2.945224 5.889144 10.552076 3.012402 5.714076 -14.549713 1.889772 -1.667810 0.439186 -2.017235 -0.084876 -9.555721 -1.681957 -73.883019 -54.547018 84.394540 -5.445750 -14.458709 -19.096728 -8.242549 -3.196240 1.853508 4.242418 -9.624784 -2.522464 55.775952 -43.907583 -81.785690 7.597978 -35.946221 25.390803 6.443698 -26.176688 2.650647 -74.274322 82.428469 -78.386120 -0.066967 -24.662046 9.852553 -0.003771 -0.012185 -0.002205 -2.214215 -24.021052 -3.253720 110.393823 78.074530 118.867111 6.722385 -8.073998 -6.417967 -0.008642 -0.017017 -0.005052
0.406519 130.458946 54.398132 177.240485 -51.303968 -3.821932 4.014086 29.746924 4.000379 0.589369 5.860149 0.603807 0.952210 9.071964 0.950362 2.951255 23.771290 2.947025 5.958437 10.630009 2.999621 5.792456 -14.466367 1.859532 -1.705751 0.404708 -2.031815 0.013800 -9.580465 -1.713786 -73.638859 -54.703667 84.317017 -5.480419 -14.513326 -19.018704 -8.288681 -3.247102 1.862827 4.088668 -9.604189 -2.486433 56.126119 -43.842925 -81.984246 7.828727 -36.043454 25.320662 6.452245 -26.190602 2.641904 -74.243292 82.427554 -78.356147 -0.076220 -24.668030 9.846062 -0.005258 -0.020323 -0.003074 -2.224574 -24.020897 -3.246307 110.342876 78.095034 118.797719 6.702949 -8.084223 -6.421122 -0.012945 -0.023835 -0.007567
0.409748 130.457058 54.392844 177.221552 -51.258509 -3.786665 4.006810 29.806322 4.003711 0.589315 5.860357 0.598200 0.950286 9.099797 0.951832 2.941289 23.800706 2.945049 6.028465 10.719132 2.977988 5.873346 -14.371100 1.819371 -1.731866 0.355192 -2.046220 0.160860 -9.626258 -1.760847 -73.372260 -54.968166 84.160166 -5.492531 -14.566353 -18.897940 -8.324241 -3.308241 1.876821 3.929804 -9.572360 -2.457277 56.456122 -43.801599 -82.159863 7.955480 -36.079692 25.260098 6.474131 -26.235228 2.616208 -74.207777 82.432737 -78.321951 -0.077776 -24.669479 9.842064 -0.011275 -0.032428 -0.006590 -2.223273 -24.051346 -3.248912 110.295176 78.114743 118.736977 6.698480 -8.079440 -6.419341 -0.014859 -0.039523 -0.008685
0.412308 130.453404 54.386447 177.201772 -51.192836 -3.745887 3.992891 29.854643 3.998416 0.588587 5.855029 0.591401 0.947360 9.122750 0.951620 2.929099 23.825429 2.939165 6.096557 10.816762 2.949124 5.953359 -14.266806 1.771752 -1.747048 0.292634 -2.056909 0.347570 -9.682495 -1.825849 -73.085444 -55.322531 83.944483 -5.497439 -14.613332 -18.763765 -8.347209 -3.372159 1.896540 3.788583 -9.534831 -2.438076 56.548948 -43.842598 -82.163760 8.070572 -36.183065 25.164245 6.504452 -26.308275 2.585079 -74.264255 82.432230 -78.376803 -0.090028 -24.691148 9.837483 -0.003383 -0.018612 -0.001978 -2.223509 -24.098778 -3.258297 110.244174 78.130097 118.673247 6.697859 -8.114384 -6.429754 -0.002104 -0.018600 -0.001230
0.416604 130.451968 54.376099 177.179630 -51.127194 -3.708251 3.984695 29.836844 3.980413 0.580693 5.916390 0.603499 0.943679 9.141753 0.950132 2.915273 23.846261 2.930439 6.159321 10.918337 2.913496 6.028755 -14.158385 1.717973 -1.750413 0.217190 -2.062608 0.559795 -9.736927 -1.907002 -72.786940 -55.746335 83.694876 -5.496573 -14.656686 -18.636298 -8.355068 -3.431472 1.920288 3.678440 -9.501193 -2.424307 56.567985 -44.033598 -82.152417 8.206587 -36.228404 25.084939 6.532682 -26.381530 2.568510 -74.357333 82.423664 -78.469830 -0.095458 -24.700162 9.825823 0.003458 -0.023491 0.002021 -2.221302 -24.143854 -3.266592 110.180547 78.140818 118.598386 6.708139 -8.126657 -6.433092 -0.002412 -0.017780 -0.001410
0.421117 130.453055 54.361527 177.158334 -51.063814 -3.671011 3.974259 29.822438 3.961653 0.574192 5.977789 0.614699 0.939523 9.156806 0.948287 2.900725 23.863078 2.921321 6.212046 11.019027 2.871945 6.094223 -14.050919 1.660007 -1.746399 0.133908 -2.064220 0.786830 -9.784304 -1.999845 -72.486619 -56.216862 83.436534 -5.484427 -14.700028 -18.521730 -8.352370 -3.479630 1.945510 3.610022 -9.479646 -2.411699 56.526690 -44.273732 -82.141771 8.280985 -36.226652 25.012163 6.555256 -26.445584 2.545806 -74.427360 82.417628 -78.544409 -0.095012 -24.687604 9.827227 0.004745 -0.042070 0.002774 -2.221918 -24.185133 -3.272847 110.124403 78.150157 118.528984 6.716191 -8.119490 -6.434490 -0.009802 -0.033664 -0.005730
0.427058 130.453117 54.345982 177.148919 -50.984770 -3.648991 3.957443 29.843271 3.959279 0.572398 5.990124 0.613249 0.935280 9.167590 0.946883 2.886902 23.875423 2.914079 6.251405 11.113858 2.826616 6.145642 -13.949759 1.600973 -1.740078 0.047991 -2.064298 1.015276 -9.824791 -2.098921 -72.177663 -56.714633 83.182019 -5.459206 -14.745147 -18.424214 -8.342154 -3.515593 1.970962 3.585917 -9.471525 -2.403174 56.400458 -44.570744 -82.108902 8.324389 -36.203968 24.920038 6.569034 -26.528879 2.526286 -74.539649 82.407622 -78.662344 -0.089442 -24.706144 9.833768 -0.001130 -0.027623 -0.000660 -2.237522 -24.241611 -3.271357 110.230613 78.159774 118.628959 6.721364 -8.186262 -6.446713 -0.004259 -0.017732 -0.002490
0.432258 130.449335 54.331759 177.130641 -50.878058 -3.618421 3.943656 29.922979 3.970536 0.577216 5.917633 0.593631 0.931275 9.174686 0.946087 2.874627 23.883819 2.909353 6.274267 11.196319 2.779234 6.179283 -13.861953 1.543598 -1.734700 -0.039658 -2.066319 1.221232 -9.859658 -2.197769 -71.840353 -57.225351 82.929689 -5.429485 -14.791738 -18.352906 -8.329118 -3.593960 1.975317 3.591042 -9.423018 -2.376061 56.207324 -44.918411 -82.057378 8.353294 -36.164938 24.795737 6.595102 -26.638952 2.495686 -74.674518 82.408798 -78.792860 -0.083338 -24.714790 9.832442 0.001043 -0.023810 0.000610 -2.275424 -24.317515 -3.254131 110.283179 78.177156 118.645131 6.744534 -8.234004 -6.455314 0.001094 -0.007132 0.000640
0.437204 130.448814 54.313454 177.123290 -50.780766 -3.595844 3.932021 29.963945 3.973384 0.576801 5.893593 0.587992 0.928380 9.178854 0.945347 2.865721 23.888859 2.905778 6.279783 11.260729 2.731274 6.194050 -13.793527 1.489745 -1.731850 -0.124602 -2.071476 1.316351 -9.893882 -2.256519 -71.391011 -57.760210 82.670579 -5.405941 -14.835338 -18.305944 -8.301593 -3.588608 2.002777 3.609079 -9.455662 -2.381972 55.975393 -45.301016 -81.998185 8.376036 -36.110089 24.643503 6.622218 -26.738828 2.462206 -74.901762 82.413935 -79.011112 -0.084162 -24.718775 9.840519 -0.000276 -0.019645 -0.000162 -2.307452 -24.391411 -3.249670 110.374845 78.185873 118.712784 6.774502 -8.271850 -6.462620 0.004712 -0.004262 0.002755
0.442127 130.447006 54.295171 177.110004 -50.671549 -3.570016 3.925262 29.967718 3.970482 0.576346 5.894815 0.587434 0.927672 9.180675 0.944430 2.863193 23.890996 2.902770 6.270707 11.304123 2.684640 6.192730 -13.747655 1.440687 -1.731001 -0.201957 -2.078248 1.393336 -9.931408 -2.306353 -70.932422 -58.291010 82.413660 -5.383348 -14.865654 -18.274388 -8.270789 -3.577695 2.030167 3.607141 -9.537019 -2.406835 55.706399 -45.698233 -81.874407 8.389230 -36.043618 24.484208 6.656162 -26.851338 2.423237 -75.146399 82.430746 -79.243432 -0.087466 -24.733201 9.847037 -0.001718 -0.017937 -0.001004 -2.322549 -24.486480 -3.252894 110.510953 78.191699 118.841961 6.793738 -8.303479 -6.451653 0.007015 -0.007243 0.004101
0.447632 130.444413 54.276977 177.092997 -50.554231 -3.545093 3.924153 29.964311 3.969443 0.577358 5.894996 0.586860 0.929175 9.180897 0.943595 2.867025 23.891091 2.900880 6.249035 11.326806 2.638950 6.177582 -13.723995 1.395550 -1.738440 -0.294845 -2.088061 1.507617 -9.946481 -2.376001 -70.523432 -58.797355 82.167380 -5.352022 -14.874032 -18.252530 -8.257733 -3.617273 2.046062 3.612856 -9.566133 -2.411690 55.449096 -46.109780 -81.763744 8.389075 -35.974781 24.344522 6.686192 -26.972318 2.387045 -75.377156 82.450411 -79.465586 -0.091081 -24.744207 9.854365 -0.005347 -0.014912 -0.003126 -2.323194 -24.598138 -3.258018 110.689837 78.196059 119.028945 6.821474 -8.325828 -6.464322 0.008007 -0.014983 0.004681
